<?xml version="1.0" standalone="no"?>
<!DOCTYPE svg PUBLIC "-//W3C//DTD SVG 20010904//EN"
 "http://www.w3.org/TR/2001/REC-SVG-20010904/DTD/svg10.dtd">
<svg version="1.0" xmlns="http://www.w3.org/2000/svg"
 width="640.000000pt" height="640.000000pt" viewBox="0 0 640.000000 640.000000"
 preserveAspectRatio="xMidYMid meet">
<metadata>
Created by potrace 1.14, written by Peter Selinger 2001-2017
</metadata>
<g transform="translate(0.000000,640.000000) scale(0.100000,-0.100000)"
fill="#000000" stroke="none">
<path d="M3417 5646 c-121 -44 -245 -189 -438 -514 -103 -173 -234 -420 -226
-428 2 -2 71 2 153 10 137 12 150 15 164 37 42 64 110 149 153 191 51 50 89
67 116 51 27 -16 59 -91 71 -166 6 -40 13 -86 15 -102 l5 -31 138 -27 c76 -15
144 -27 152 -27 11 0 12 41 7 233 -13 489 -77 726 -210 776 -36 14 -53 13
-100 -3z"/>
<path d="M1705 3648 c-343 -594 -455 -796 -448 -808 5 -8 211 -365 458 -792
l448 -778 109 0 108 0 0 -147 c0 -138 1 -149 25 -189 25 -43 106 -94 149 -94
42 0 98 22 132 52 59 52 64 71 64 233 l0 145 45 0 45 0 0 -140 0 -140 185 0
185 0 0 140 0 140 90 0 90 0 0 -210 0 -210 75 0 75 0 0 210 0 210 219 0 c163
0 221 3 229 13 13 16 902 1556 905 1568 1 5 -203 364 -453 799 l-455 790 -911
0 -912 0 -457 -792z m895 -2523 l0 -145 -35 0 -35 0 0 145 0 145 35 0 35 0 0
-145z m470 75 l0 -70 -40 0 -40 0 0 70 0 70 40 0 40 0 0 -70z"/>
<path d="M5032 4294 c-57 -7 -141 -20 -186 -29 -101 -19 -378 -93 -390 -105
-5 -5 34 -52 88 -108 l97 -100 147 -5 c164 -6 212 -17 248 -60 39 -47 18 -100
-81 -206 -36 -38 -65 -72 -65 -77 0 -14 145 -274 152 -274 16 0 249 213 369
337 70 72 150 166 178 210 148 225 104 369 -128 419 -82 17 -288 16 -429 -2z"/>
</g>
</svg>
